<svg width="24" height="24" viewBox="0 0 24 24" fill="none" xmlns="http://www.w3.org/2000/svg">
<path d="M20.5065 12.313L12.7285 20.091C11.6001 21.2011 10.0789 21.8203 8.49608 21.8139C6.91326 21.8074 5.3971 21.1758 4.27787 20.0566C3.15863 18.9373 2.527 17.4212 2.52056 15.8384C2.51411 14.2555 3.13338 12.7343 4.24346 11.606L12.0215 3.82798C12.3929 3.45653 12.8339 3.16189 13.3192 2.96086C13.8045 2.75984 14.3247 2.65637 14.85 2.65637C15.3753 2.65637 15.8954 2.75984 16.3807 2.96086C16.866 3.16189 17.307 3.45653 17.6785 3.82798C18.0499 4.19942 18.3445 4.64039 18.5456 5.1257C18.7466 5.61102 18.8501 6.13117 18.8501 6.65648C18.8501 7.18178 18.7466 7.70193 18.5456 8.18725C18.3445 8.67256 18.0499 9.11353 17.6785 9.48497L9.90046 17.263C9.52531 17.6381 9.0165 17.8489 8.48596 17.8489C7.95542 17.8489 7.44661 17.6381 7.07146 17.263C6.69631 16.8878 6.48555 16.379 6.48555 15.8485C6.48555 15.3179 6.69631 14.8091 7.07146 14.434L14.1425 7.36398" stroke="white" stroke-width="2" stroke-linecap="square"/>
</svg>
