<svg width="19" height="19" viewBox="0 0 19 19" fill="none" xmlns="http://www.w3.org/2000/svg">
<path d="M9.5 13.4583C9.72431 13.4583 9.91246 13.3823 10.0645 13.2303C10.2165 13.0783 10.2922 12.8904 10.2917 12.6667C10.2911 12.4429 10.2151 12.255 10.0637 12.103C9.91219 11.951 9.72431 11.875 9.5 11.875C9.27569 11.875 9.08781 11.951 8.93633 12.103C8.78486 12.255 8.70886 12.4429 8.70833 12.6667C8.70781 12.8904 8.78381 13.0786 8.93633 13.2311C9.08886 13.3837 9.27675 13.4594 9.5 13.4583ZM9.5 10.2917C9.72431 10.2917 9.91246 10.2157 10.0645 10.0637C10.2165 9.91167 10.2922 9.72378 10.2917 9.5V6.33333C10.2917 6.10903 10.2157 5.92114 10.0637 5.76967C9.91167 5.61819 9.72378 5.54219 9.5 5.54167C9.27622 5.54114 9.08833 5.61714 8.93633 5.76967C8.78433 5.92219 8.70833 6.11008 8.70833 6.33333V9.5C8.70833 9.72431 8.78433 9.91246 8.93633 10.0645C9.08833 10.2165 9.27622 10.2922 9.5 10.2917ZM7.18437 16.625C6.97326 16.625 6.77218 16.5854 6.58112 16.5063C6.39007 16.4271 6.22171 16.3149 6.07604 16.1698L2.83021 12.924C2.68507 12.7788 2.57292 12.6105 2.49375 12.4189C2.41458 12.2273 2.375 12.0265 2.375 11.8164V7.18517C2.375 6.97406 2.41458 6.77297 2.49375 6.58192C2.57292 6.39086 2.68507 6.2225 2.83021 6.07683L6.07604 2.831C6.22118 2.68586 6.38954 2.57371 6.58112 2.49454C6.77271 2.41538 6.97379 2.37553 7.18437 2.375H11.8156C12.0267 2.375 12.2281 2.41458 12.4197 2.49375C12.6113 2.57292 12.7793 2.68507 12.924 2.83021L16.1698 6.07604C16.3149 6.22118 16.4271 6.38954 16.5063 6.58112C16.5854 6.77271 16.625 6.97379 16.625 7.18437V11.8156C16.625 12.0267 16.5854 12.2281 16.5063 12.4197C16.4271 12.6113 16.3149 12.7793 16.1698 12.924L12.924 16.1698C12.7788 16.3149 12.6105 16.4271 12.4189 16.5063C12.2273 16.5854 12.0262 16.625 11.8156 16.625H7.18437ZM7.20417 15.0417H11.7958L15.0417 11.7958V7.20417L11.7958 3.95833H7.20417L3.95833 7.20417V11.7958L7.20417 15.0417Z" fill="white"/>
</svg>
