<svg width="32" height="34" viewBox="0 0 32 34" fill="none" xmlns="http://www.w3.org/2000/svg">
<path fill-rule="evenodd" clip-rule="evenodd" d="M9.40028 6.067C11.1506 4.31666 13.5246 3.33333 15.9999 3.33333C18.4753 3.33333 20.8493 4.31666 22.5996 6.067C24.3499 7.81734 25.3333 10.1913 25.3333 12.6667C25.3333 17.1369 26.2894 19.9128 27.1705 21.5282C27.6129 22.3392 28.0436 22.8713 28.3429 23.1872C28.4928 23.3455 28.6107 23.4504 28.6816 23.5096C28.7171 23.5391 28.7409 23.5573 28.7512 23.5649C28.7528 23.5661 28.7541 23.5671 28.755 23.5677C29.233 23.8961 29.4445 24.4967 29.2761 25.053C29.1058 25.6154 28.5875 26 27.9999 26H3.99994C3.41238 26 2.89408 25.6154 2.72382 25.053C2.55536 24.4967 2.76688 23.8961 3.24486 23.5677C3.2458 23.5671 3.24707 23.5661 3.24867 23.5649C3.25894 23.5573 3.28274 23.5391 3.31824 23.5096C3.38919 23.4504 3.50704 23.3455 3.657 23.1872C3.95624 22.8713 4.38702 22.3392 4.82941 21.5282C5.71052 19.9128 6.66661 17.1369 6.66661 12.6667C6.66661 10.1913 7.64994 7.81734 9.40028 6.067ZM3.25834 23.5586C3.25844 23.5585 3.25855 23.5585 3.25865 23.5584C3.25865 23.5584 3.25864 23.5584 3.25864 23.5584L3.25834 23.5586ZM6.86571 23.3333H25.1342C25.0327 23.1671 24.9309 22.9912 24.8294 22.8051C23.7105 20.7538 22.6666 17.5298 22.6666 12.6667C22.6666 10.8986 21.9642 9.20286 20.714 7.95262C19.4637 6.70238 17.7681 6 15.9999 6C14.2318 6 12.5361 6.70238 11.2859 7.95262C10.0357 9.20286 9.33327 10.8986 9.33327 12.6667C9.33327 17.5298 8.28936 20.7538 7.17047 22.8051C7.069 22.9912 6.96716 23.1671 6.86571 23.3333Z" fill="#637381"/>
<path fill-rule="evenodd" clip-rule="evenodd" d="M13.0244 28.8467C13.6614 28.4772 14.4773 28.694 14.8468 29.331C14.964 29.533 15.1322 29.7007 15.3346 29.8173C15.537 29.9339 15.7665 29.9953 16.0001 29.9953C16.2337 29.9953 16.4632 29.9339 16.6656 29.8173C16.868 29.7007 17.0362 29.533 17.1534 29.331C17.5229 28.694 18.3388 28.4772 18.9758 28.8467C19.6127 29.2162 19.8296 30.0321 19.4601 30.669C19.1085 31.2752 18.6038 31.7783 17.9965 32.1281C17.3893 32.4778 16.7008 32.6619 16.0001 32.6619C15.2993 32.6619 14.6109 32.4778 14.0036 32.1281C13.3964 31.7783 12.8917 31.2752 12.5401 30.669C12.1706 30.0321 12.3874 29.2162 13.0244 28.8467Z" fill="#637381"/>
<circle cx="22.5" cy="4.5" r="4" fill="#DC3545" stroke="white"/>
</svg>
