<svg width="20" height="20" viewBox="0 0 20 20" fill="none" xmlns="http://www.w3.org/2000/svg">
<path d="M10 15.5556C10.3148 15.5556 10.5789 15.4489 10.7922 15.2356C11.0056 15.0222 11.1119 14.7585 11.1111 14.4444C11.1104 14.1304 11.0037 13.8667 10.7911 13.6533C10.5785 13.44 10.3148 13.3333 10 13.3333C9.68519 13.3333 9.42148 13.44 9.20889 13.6533C8.9963 13.8667 8.88963 14.1304 8.88889 14.4444C8.88815 14.7585 8.99482 15.0226 9.20889 15.2367C9.42296 15.4507 9.68667 15.557 10 15.5556ZM10 11.1111C10.3148 11.1111 10.5789 11.0044 10.7922 10.7911C11.0056 10.5778 11.1119 10.3141 11.1111 10V5.55556C11.1111 5.24074 11.0044 4.97704 10.7911 4.76444C10.5778 4.55185 10.3141 4.44519 10 4.44444C9.68593 4.4437 9.42222 4.55037 9.20889 4.76444C8.99556 4.97852 8.88889 5.24222 8.88889 5.55556V10C8.88889 10.3148 8.99556 10.5789 9.20889 10.7922C9.42222 11.0056 9.68593 11.1119 10 11.1111ZM6.75 20C6.4537 20 6.17148 19.9444 5.90333 19.8333C5.63519 19.7222 5.39889 19.5648 5.19444 19.3611L0.638889 14.8056C0.435185 14.6019 0.277778 14.3656 0.166667 14.0967C0.0555557 13.8278 0 13.5459 0 13.2511V6.75111C0 6.45482 0.0555557 6.17259 0.166667 5.90444C0.277778 5.6363 0.435185 5.4 0.638889 5.19556L5.19444 0.64C5.39815 0.436296 5.63444 0.278889 5.90333 0.167778C6.17222 0.0566667 6.45444 0.000740741 6.75 0H13.25C13.5463 0 13.8289 0.0555557 14.0978 0.166667C14.3667 0.277778 14.6026 0.435185 14.8056 0.638889L19.3611 5.19444C19.5648 5.39815 19.7222 5.63444 19.8333 5.90333C19.9444 6.17222 20 6.45444 20 6.75V13.25C20 13.5463 19.9444 13.8289 19.8333 14.0978C19.7222 14.3667 19.5648 14.6026 19.3611 14.8056L14.8056 19.3611C14.6019 19.5648 14.3656 19.7222 14.0967 19.8333C13.8278 19.9444 13.5456 20 13.25 20H6.75ZM6.77778 17.7778H13.2222L17.7778 13.2222V6.77778L13.2222 2.22222H6.77778L2.22222 6.77778V13.2222L6.77778 17.7778Z" fill="black" fill-opacity="0.5"/>
</svg>
